<?xml version="1.0" standalone="no"?>
<!DOCTYPE svg PUBLIC "-//W3C//DTD SVG 20010904//EN"
 "http://www.w3.org/TR/2001/REC-SVG-20010904/DTD/svg10.dtd">
<svg version="1.0" xmlns="http://www.w3.org/2000/svg"
 width="1280.000000pt" height="1274.000000pt" viewBox="0 0 1280.000000 1274.000000"
 preserveAspectRatio="xMidYMid meet">
<metadata>
Created by potrace 1.15, written by Peter Selinger 2001-2017
</metadata>
<g transform="translate(0.000000,1274.000000) scale(0.100000,-0.100000)"
fill="#000000" stroke="none">
<path d="M4403 12726 c-60 -10 -68 -16 -179 -116 l-116 -104 -187 -58 c-203
-64 -183 -51 -301 -186 l-55 -63 -141 35 c-77 19 -207 56 -288 81 -82 26 -150
44 -152 42 -2 -2 22 -60 53 -128 55 -121 97 -182 345 -504 18 -22 17 -23 -90
-117 -104 -92 -113 -97 -332 -201 -205 -96 -239 -109 -375 -141 l-150 -34
-107 81 -107 81 -57 126 c-31 69 -58 127 -60 129 -3 3 -47 -37 -98 -88 l-94
-93 -33 56 c-19 31 -38 56 -44 56 -5 0 -128 -30 -272 -67 l-263 -68 0 -82 0
-83 59 0 58 0 47 -70 c31 -47 42 -72 34 -75 -7 -2 -69 -13 -137 -24 -68 -11
-127 -24 -131 -28 -11 -13 -51 -228 -43 -231 5 -1 48 -24 97 -50 l90 -47 44
-130 45 -130 -128 -525 c-70 -289 -129 -526 -130 -528 -2 -2 -66 13 -143 32
l-140 36 -303 -175 c-167 -96 -306 -180 -310 -187 -3 -7 -16 -78 -28 -158
l-22 -146 21 -68 c12 -37 20 -74 18 -83 -2 -9 -48 -33 -112 -59 -60 -24 -111
-45 -113 -48 -2 -2 -20 -55 -38 -117 l-34 -113 23 -31 c13 -16 98 -118 189
-225 l165 -195 -34 -67 c-19 -37 -34 -69 -34 -71 0 -2 35 -7 78 -11 42 -4 100
-9 129 -13 l51 -6 18 -66 c29 -110 12 -101 196 -101 l161 0 93 92 94 92 0 -35
c0 -19 -5 -101 -10 -183 l-11 -150 68 -68 c37 -37 73 -68 79 -68 6 0 34 9 61
21 l51 21 168 -32 c93 -17 178 -33 190 -36 15 -4 47 18 128 90 l107 96 107 0
107 0 90 111 c50 61 97 119 105 129 10 13 82 36 227 74 116 31 216 56 222 56
8 0 11 -73 11 -243 l0 -243 66 -79 c117 -142 227 -258 273 -287 54 -34 126
-37 206 -9 l50 18 141 -118 142 -118 163 -35 c90 -19 204 -42 252 -50 90 -15
122 -31 285 -137 59 -39 55 -26 82 -218 l20 -145 -35 -36 -36 -37 47 -176 47
-177 294 0 293 0 0 -130 0 -129 98 -74 97 -74 47 -117 46 -116 -94 -283 -95
-282 60 -170 59 -170 -12 -180 c-7 -99 -11 -182 -9 -184 2 -3 93 0 202 7 l198
11 123 -34 c68 -19 126 -38 130 -42 4 -4 33 -125 64 -267 31 -143 58 -262 61
-264 2 -2 51 10 108 27 58 17 110 31 116 31 11 0 85 -149 97 -195 3 -12 -15
-98 -40 -190 -25 -93 -44 -171 -41 -173 2 -2 39 -14 81 -26 l78 -23 48 -84 47
-84 -20 -130 c-11 -71 -22 -140 -25 -152 -3 -15 -40 -47 -111 -95 -59 -39
-197 -145 -306 -234 -172 -142 -220 -189 -373 -361 -124 -140 -186 -218 -210
-265 -19 -37 -34 -70 -34 -73 0 -3 40 -5 89 -5 l89 0 117 -140 c64 -77 121
-140 126 -140 6 0 37 18 70 41 33 22 64 38 67 34 4 -3 16 -34 28 -68 l20 -61
190 -118 c169 -106 201 -130 306 -236 l118 -117 -71 -71 -71 -71 23 -104 c12
-57 23 -105 24 -106 1 -2 27 2 59 9 l57 11 59 116 c32 64 103 181 157 261 l98
145 128 70 128 70 150 230 c93 141 183 295 236 400 l85 170 118 120 119 120
36 151 35 151 -24 119 -24 118 34 160 c19 88 40 166 45 172 6 7 42 32 82 55
42 25 116 86 177 145 60 58 182 159 284 233 l179 131 96 1 96 0 37 49 c21 27
68 68 107 94 59 38 82 46 153 57 68 10 98 20 165 59 l83 47 152 -34 c138 -30
163 -33 255 -28 132 8 157 15 162 46 1 13 18 44 36 69 28 39 54 55 174 115
l141 69 0 118 0 118 99 148 c55 81 156 214 226 296 97 114 125 153 121 170 -2
11 -8 65 -12 119 l-7 98 95 142 c92 140 95 145 151 324 42 136 66 236 93 395
l36 213 -6 265 c-3 146 -9 285 -12 310 -5 43 -3 48 63 137 l68 92 120 48 120
49 110 181 c123 202 239 347 461 573 73 74 209 222 302 328 l168 194 47 212
47 212 -35 198 c-19 109 -38 203 -43 210 -4 7 -46 67 -95 133 l-87 120 -200
58 -200 58 -154 118 c-84 65 -206 166 -270 224 -85 76 -188 153 -367 272
l-248 166 -215 -12 -214 -12 -198 50 c-110 28 -258 70 -331 95 l-131 44 -121
-44 c-67 -24 -127 -44 -134 -44 -7 0 -27 15 -45 33 -31 32 -32 36 -32 116 0
78 -3 89 -45 177 l-44 93 -53 -15 c-29 -8 -66 -19 -83 -25 -28 -9 -33 -5 -105
64 l-75 74 -279 103 -279 104 -131 -22 c-72 -13 -132 -26 -134 -30 -1 -4 -28
-52 -60 -107 l-57 -100 -110 -22 c-60 -12 -111 -20 -112 -19 -1 1 32 27 75 57
73 52 78 58 114 139 35 78 38 91 36 165 l-3 80 -70 7 c-38 3 -187 10 -330 14
l-260 7 -46 -139 -45 -139 -71 -3 -71 -3 -5 33 c-4 18 -9 66 -13 105 -6 69 -5
75 21 110 16 21 90 101 166 178 125 128 142 151 203 261 36 67 66 126 66 132
0 5 -35 24 -78 42 l-78 32 -71 142 -71 142 -12 154 -13 154 -106 118 -106 118
-131 -131 -131 -130 -10 -80 c-12 -87 -18 -98 -145 -231 l-63 -66 -125 12
c-120 11 -129 11 -220 -12 l-95 -23 -139 80 c-76 45 -141 81 -145 81 -4 0 -22
-15 -40 -34 -29 -30 -44 -36 -147 -56 -89 -18 -114 -26 -114 -39 0 -9 9 -50
20 -91 10 -41 18 -76 16 -78 -2 -2 -92 12 -200 31 l-196 35 -179 -83 c-171
-80 -183 -84 -319 -106 l-140 -23 -106 70 -106 69 -47 140 -46 140 11 110 c9
96 16 123 57 215 l47 105 -22 70 c-20 65 -27 75 -92 129 l-70 59 7 69 c3 39 9
76 12 84 6 16 2 16 -84 0z"/>
</g>
</svg>
